<svg version="1.1" viewBox="0.0 0.0 960.0 720.0" fill="none" stroke="none" stroke-linecap="square" stroke-miterlimit="10" xmlns:xlink="http://www.w3.org/1999/xlink" xmlns="http://www.w3.org/2000/svg"><clipPath id="p.0"><path d="m0 0l960.0 0l0 720.0l-960.0 0l0 -720.0z" clip-rule="nonzero"/></clipPath><g clip-path="url(#p.0)"><path fill="#ffffff" d="m0 0l960.0 0l0 720.0l-960.0 0z" fill-rule="evenodd"/><path fill="#b7b7b7" d="m50.935326 33.394665l0 0c0 -1.0088997 0.8178749 -1.8267708 1.8267708 -1.8267708l0 0c0.48448944 0 0.94913864 0.19246292 1.2917252 0.53504944c0.3425827 0.34258652 0.5350456 0.8072319 0.5350456 1.2917213l0 0c0 1.0088997 -0.8178711 1.8267708 -1.8267708 1.8267708l0 0c-1.0088959 0 -1.8267708 -0.8178711 -1.8267708 -1.8267708z" fill-rule="evenodd"/><path fill="#b7b7b7" d="m159.80339 33.394665l0 0c0 -1.0088997 0.8178711 -1.8267708 1.8267822 -1.8267708l0 0c0.4844818 0 0.9491272 0.19246292 1.2917175 0.53504944c0.34259033 0.34258652 0.53504944 0.8072319 0.53504944 1.2917213l0 0c0 1.0088997 -0.8178711 1.8267708 -1.826767 1.8267708l0 0c-1.0089111 0 -1.8267822 -0.8178711 -1.8267822 -1.8267708z" fill-rule="evenodd"/><path fill="#b7b7b7" d="m268.67148 33.394665l0 0c0 -1.0088997 0.8178711 -1.8267708 1.8267517 -1.8267708l0 0c0.48449707 0 0.9491272 0.19246292 1.2917175 0.53504944c0.34259033 0.34258652 0.5350647 0.8072319 0.5350647 1.2917213l0 0c0 1.0088997 -0.8178711 1.8267708 -1.8267822 1.8267708l0 0c-1.0088806 0 -1.8267517 -0.8178711 -1.8267517 -1.8267708z" fill-rule="evenodd"/><path fill="#b7b7b7" d="m370.22012 33.394665l0 0c0 -1.0088997 0.8178711 -1.8267708 1.8267517 -1.8267708l0 0c0.48449707 0 0.9491577 0.19246292 1.291748 0.53504944c0.3425598 0.34258652 0.5350342 0.8072319 0.5350342 1.2917213l0 0c0 1.0088997 -0.8178711 1.8267708 -1.8267822 1.8267708l0 0c-1.0088806 0 -1.8267517 -0.8178711 -1.8267517 -1.8267708z" fill-rule="evenodd"/><path fill="#b7b7b7" d="m479.0882 33.394665l0 0c0 -1.0088997 0.8178711 -1.8267708 1.8267517 -1.8267708l0 0c0.48449707 0 0.9491577 0.19246292 1.2917175 0.53504944c0.34259033 0.34258652 0.5350647 0.8072319 0.5350647 1.2917213l0 0c0 1.0088997 -0.8178711 1.8267708 -1.8267822 1.8267708l0 0c-1.0088806 0 -1.8267517 -0.8178711 -1.8267517 -1.8267708z" fill-rule="evenodd"/><path fill="#b7b7b7" d="m587.95624 33.394665l0 0c0 -1.0088997 0.8178711 -1.8267708 1.8267822 -1.8267708l0 0c0.48449707 0 0.9491577 0.19246292 1.291748 0.53504944c0.34259033 0.34258652 0.5350342 0.8072319 0.5350342 1.2917213l0 0c0 1.0088997 -0.8178711 1.8267708 -1.8267822 1.8267708l0 0c-1.0089111 0 -1.8267822 -0.8178711 -1.8267822 -1.8267708z" fill-rule="evenodd"/><path fill="#b7b7b7" d="m689.5049 33.394665l0 0c0 -1.0088997 0.8178711 -1.8267708 1.8267822 -1.8267708l0 0c0.48449707 0 0.9491577 0.19246292 1.291748 0.53504944c0.34259033 0.34258652 0.5350342 0.8072319 0.5350342 1.2917213l0 0c0 1.0088997 -0.8178711 1.8267708 -1.8267822 1.8267708l0 0c-1.0089111 0 -1.8267822 -0.8178711 -1.8267822 -1.8267708z" fill-rule="evenodd"/><path fill="#b7b7b7" d="m798.373 33.394665l0 0c0 -1.0088997 0.8178711 -1.8267708 1.8267822 -1.8267708l0 0c0.48449707 0 0.9490967 0.19246292 1.291687 0.53504944c0.34259033 0.34258652 0.5350342 0.8072319 0.5350342 1.2917213l0 0c0 1.0088997 -0.8178711 1.8267708 -1.8267212 1.8267708l0 0c-1.0089111 0 -1.8267822 -0.8178711 -1.8267822 -1.8267708z" fill-rule="evenodd"/><path fill="#b7b7b7" d="m907.241 33.394665l0 0c0 -1.0088997 0.8178711 -1.8267708 1.8267822 -1.8267708l0 0c0.48449707 0 0.9491577 0.19246292 1.291748 0.53504944c0.34259033 0.34258652 0.5350342 0.8072319 0.5350342 1.2917213l0 0c0 1.0088997 -0.8178711 1.8267708 -1.8267822 1.8267708l0 0c-1.0089111 0 -1.8267822 -0.8178711 -1.8267822 -1.8267708z" fill-rule="evenodd"/><path fill="#b7b7b7" d="m47.27562 142.26306l0 0c0 -1.0088959 0.8178711 -1.8267822 1.8267708 -1.8267822l0 0c0.48448944 0 0.9491348 0.19247437 1.2917213 0.53504944c0.34258652 0.34259033 0.53504944 0.8072357 0.53504944 1.2917328l0 0c0 1.0088959 -0.8178749 1.826767 -1.8267708 1.826767l0 0c-1.0088997 0 -1.8267708 -0.8178711 -1.8267708 -1.826767z" fill-rule="evenodd"/><path fill="#b7b7b7" d="m156.14369 142.26306l0 0c0 -1.0088959 0.8178711 -1.8267822 1.826767 -1.8267822l0 0c0.4844818 0 0.94914246 0.19247437 1.2917175 0.53504944c0.34259033 0.34259033 0.53504944 0.8072357 0.53504944 1.2917328l0 0c0 1.0088959 -0.8178711 1.826767 -1.826767 1.826767l0 0c-1.0088959 0 -1.826767 -0.8178711 -1.826767 -1.826767z" fill-rule="evenodd"/><path fill="#b7b7b7" d="m47.27562 251.13145l0 0c0 -1.0089111 0.8178711 -1.8267822 1.8267708 -1.8267822l0 0c0.48448944 0 0.9491348 0.19247437 1.2917213 0.53504944c0.34258652 0.34259033 0.53504944 0.8072357 0.53504944 1.2917328l0 0c0 1.0088959 -0.8178749 1.826767 -1.8267708 1.826767l0 0c-1.0088997 0 -1.8267708 -0.8178711 -1.8267708 -1.826767z" fill-rule="evenodd"/><path fill="#b7b7b7" d="m156.14369 251.13145l0 0c0 -1.0089111 0.8178711 -1.8267822 1.826767 -1.8267822l0 0c0.4844818 0 0.94914246 0.19247437 1.2917175 0.53504944c0.34259033 0.34259033 0.53504944 0.8072357 0.53504944 1.2917328l0 0c0 1.0088959 -0.8178711 1.826767 -1.826767 1.826767l0 0c-1.0088959 0 -1.826767 -0.8178711 -1.826767 -1.826767z" fill-rule="evenodd"/><path fill="#b7b7b7" d="m261.35205 142.26306l0 0c0 -1.0088959 0.8178711 -1.8267822 1.8267822 -1.8267822l0 0c0.48446655 0 0.9491272 0.19247437 1.2917175 0.53504944c0.34259033 0.34259033 0.5350342 0.8072357 0.5350342 1.2917328l0 0c0 1.0088959 -0.8178711 1.826767 -1.8267517 1.826767l0 0c-1.0089111 0 -1.8267822 -0.8178711 -1.8267822 -1.826767z" fill-rule="evenodd"/><path fill="#b7b7b7" d="m366.5604 142.26306l0 0c0 -1.0088959 0.8179016 -1.8267822 1.8267822 -1.8267822l0 0c0.48449707 0 0.9491272 0.19247437 1.2917175 0.53504944c0.34259033 0.34259033 0.5350647 0.8072357 0.5350647 1.2917328l0 0c0 1.0088959 -0.8178711 1.826767 -1.8267822 1.826767l0 0c-1.0088806 0 -1.8267822 -0.8178711 -1.8267822 -1.826767z" fill-rule="evenodd"/><path fill="#b7b7b7" d="m265.01175 251.13145l0 0c0 -1.0089111 0.8178711 -1.8267822 1.8267822 -1.8267822l0 0c0.48449707 0 0.9491272 0.19247437 1.2917175 0.53504944c0.34259033 0.34259033 0.5350647 0.8072357 0.5350647 1.2917328l0 0c0 1.0088959 -0.8179016 1.826767 -1.8267822 1.826767l0 0c-1.0089111 0 -1.8267822 -0.8178711 -1.8267822 -1.826767z" fill-rule="evenodd"/><path fill="#b7b7b7" d="m366.5604 251.13145l0 0c0 -1.0089111 0.8179016 -1.8267822 1.8267822 -1.8267822l0 0c0.48449707 0 0.9491272 0.19247437 1.2917175 0.53504944c0.34259033 0.34259033 0.5350647 0.8072357 0.5350647 1.2917328l0 0c0 1.0088959 -0.8178711 1.826767 -1.8267822 1.826767l0 0c-1.0088806 0 -1.8267822 -0.8178711 -1.8267822 -1.826767z" fill-rule="evenodd"/><path fill="#b7b7b7" d="m475.42847 142.26306l0 0c0 -1.0088959 0.8178711 -1.8267822 1.8267822 -1.8267822l0 0c0.48449707 0 0.9491272 0.19247437 1.2917175 0.53504944c0.34259033 0.34259033 0.5350647 0.8072357 0.5350647 1.2917328l0 0c0 1.0088959 -0.8178711 1.826767 -1.8267822 1.826767l0 0c-1.0089111 0 -1.8267822 -0.8178711 -1.8267822 -1.826767z" fill-rule="evenodd"/><path fill="#b7b7b7" d="m475.42847 251.13145l0 0c0 -1.0089111 0.8178711 -1.8267822 1.8267822 -1.8267822l0 0c0.48449707 0 0.9491272 0.19247437 1.2917175 0.53504944c0.34259033 0.34259033 0.5350647 0.8072357 0.5350647 1.2917328l0 0c0 1.0088959 -0.8178711 1.826767 -1.8267822 1.826767l0 0c-1.0089111 0 -1.8267822 -0.8178711 -1.8267822 -1.826767z" fill-rule="evenodd"/><path fill="#b7b7b7" d="m580.63684 142.26306l0 0c0 -1.0088959 0.8178711 -1.8267822 1.8267822 -1.8267822l0 0c0.48449707 0 0.9490967 0.19247437 1.291687 0.53504944c0.34259033 0.34259033 0.5350952 0.8072357 0.5350952 1.2917328l0 0c0 1.0088959 -0.8178711 1.826767 -1.8267822 1.826767l0 0c-1.0089111 0 -1.8267822 -0.8178711 -1.8267822 -1.826767z" fill-rule="evenodd"/><path fill="#b7b7b7" d="m685.8452 142.26306l0 0c0 -1.0088959 0.8178711 -1.8267822 1.8267822 -1.8267822l0 0c0.48443604 0 0.9490967 0.19247437 1.291687 0.53504944c0.34259033 0.34259033 0.5350342 0.8072357 0.5350342 1.2917328l0 0c0 1.0088959 -0.8178711 1.826767 -1.8267212 1.826767l0 0c-1.0089111 0 -1.8267822 -0.8178711 -1.8267822 -1.826767z" fill-rule="evenodd"/><path fill="#b7b7b7" d="m584.2966 251.13145l0 0c0 -1.0089111 0.8178711 -1.8267822 1.8267212 -1.8267822l0 0c0.48449707 0 0.9491577 0.19247437 1.291748 0.53504944c0.34259033 0.34259033 0.5350342 0.8072357 0.5350342 1.2917328l0 0c0 1.0088959 -0.8178711 1.826767 -1.8267822 1.826767l0 0c-1.0088501 0 -1.8267212 -0.8178711 -1.8267212 -1.826767z" fill-rule="evenodd"/><path fill="#b7b7b7" d="m685.8452 251.13145l0 0c0 -1.0089111 0.8178711 -1.8267822 1.8267822 -1.8267822l0 0c0.48443604 0 0.9490967 0.19247437 1.291687 0.53504944c0.34259033 0.34259033 0.5350342 0.8072357 0.5350342 1.2917328l0 0c0 1.0088959 -0.8178711 1.826767 -1.8267212 1.826767l0 0c-1.0089111 0 -1.8267822 -0.8178711 -1.8267822 -1.826767z" fill-rule="evenodd"/><path fill="#b7b7b7" d="m794.71326 142.26306l0 0c0 -1.0088959 0.8178711 -1.8267822 1.8267822 -1.8267822l0 0c0.48449707 0 0.9491577 0.19247437 1.291748 0.53504944c0.34259033 0.34259033 0.5350342 0.8072357 0.5350342 1.2917328l0 0c0 1.0088959 -0.8178711 1.826767 -1.8267822 1.826767l0 0c-1.0089111 0 -1.8267822 -0.8178711 -1.8267822 -1.826767z" fill-rule="evenodd"/><path fill="#b7b7b7" d="m903.58136 142.26306l0 0c0 -1.0088959 0.8178711 -1.8267822 1.8267212 -1.8267822l0 0c0.48449707 0 0.9491577 0.19247437 1.291748 0.53504944c0.34259033 0.34259033 0.5350342 0.8072357 0.5350342 1.2917328l0 0c0 1.0088959 -0.8178711 1.826767 -1.8267822 1.826767l0 0c-1.0088501 0 -1.8267212 -0.8178711 -1.8267212 -1.826767z" fill-rule="evenodd"/><path fill="#b7b7b7" d="m794.71326 251.13145l0 0c0 -1.0089111 0.8178711 -1.8267822 1.8267822 -1.8267822l0 0c0.48449707 0 0.9491577 0.19247437 1.291748 0.53504944c0.34259033 0.34259033 0.5350342 0.8072357 0.5350342 1.2917328l0 0c0 1.0088959 -0.8178711 1.826767 -1.8267822 1.826767l0 0c-1.0089111 0 -1.8267822 -0.8178711 -1.8267822 -1.826767z" fill-rule="evenodd"/><path fill="#b7b7b7" d="m903.58136 251.13145l0 0c0 -1.0089111 0.8178711 -1.8267822 1.8267212 -1.8267822l0 0c0.48449707 0 0.9491577 0.19247437 1.291748 0.53504944c0.34259033 0.34259033 0.5350342 0.8072357 0.5350342 1.2917328l0 0c0 1.0088959 -0.8178711 1.826767 -1.8267822 1.826767l0 0c-1.0088501 0 -1.8267212 -0.8178711 -1.8267212 -1.826767z" fill-rule="evenodd"/><path fill="#b7b7b7" d="m52.76518 359.99985l0 0c0 -1.0089111 0.8178749 -1.8267822 1.8267746 -1.8267822l0 0c0.48448944 0 0.9491348 0.19247437 1.2917213 0.5350647c0.34258652 0.3425598 0.53504944 0.80722046 0.53504944 1.2917175l0 0c0 1.0088806 -0.8178749 1.8267517 -1.8267708 1.8267517l0 0c-1.0088997 0 -1.8267746 -0.8178711 -1.8267746 -1.8267517z" fill-rule="evenodd"/><path fill="#b7b7b7" d="m161.63326 359.99985l0 0c0 -1.0089111 0.8178711 -1.8267822 1.826767 -1.8267822l0 0c0.4844818 0 0.9491272 0.19247437 1.2917175 0.5350647c0.34259033 0.3425598 0.53504944 0.80722046 0.53504944 1.2917175l0 0c0 1.0088806 -0.8178711 1.8267517 -1.826767 1.8267517l0 0c-1.0088959 0 -1.826767 -0.8178711 -1.826767 -1.8267517z" fill-rule="evenodd"/><path fill="#b7b7b7" d="m52.76518 468.86823l0 0c0 -1.0088806 0.8178749 -1.8267517 1.8267746 -1.8267517l0 0c0.48448944 0 0.9491348 0.19244385 1.2917213 0.5350342c0.34258652 0.34259033 0.53504944 0.80722046 0.53504944 1.2917175l0 0c0 1.0089111 -0.8178749 1.8267822 -1.8267708 1.8267822l0 0c-1.0088997 0 -1.8267746 -0.8178711 -1.8267746 -1.8267822z" fill-rule="evenodd"/><path fill="#b7b7b7" d="m161.63326 468.86823l0 0c0 -1.0088806 0.8178711 -1.8267517 1.826767 -1.8267517l0 0c0.4844818 0 0.9491272 0.19244385 1.2917175 0.5350342c0.34259033 0.34259033 0.53504944 0.80722046 0.53504944 1.2917175l0 0c0 1.0089111 -0.8178711 1.8267822 -1.826767 1.8267822l0 0c-1.0088959 0 -1.826767 -0.8178711 -1.826767 -1.8267822z" fill-rule="evenodd"/><path fill="#b7b7b7" d="m266.8416 359.99985l0 0c0 -1.0089111 0.8178711 -1.8267822 1.8267822 -1.8267822l0 0c0.48446655 0 0.9491272 0.19247437 1.2917175 0.5350647c0.34259033 0.3425598 0.5350342 0.80722046 0.5350342 1.2917175l0 0c0 1.0088806 -0.8178711 1.8267517 -1.8267517 1.8267517l0 0c-1.0089111 0 -1.8267822 -0.8178711 -1.8267822 -1.8267517z" fill-rule="evenodd"/><path fill="#b7b7b7" d="m372.04996 359.99985l0 0c0 -1.0089111 0.8179016 -1.8267822 1.8267822 -1.8267822l0 0c0.48449707 0 0.9491272 0.19247437 1.2917175 0.5350647c0.34259033 0.3425598 0.5350647 0.80722046 0.5350647 1.2917175l0 0c0 1.0088806 -0.8178711 1.8267517 -1.8267822 1.8267517l0 0c-1.0088806 0 -1.8267822 -0.8178711 -1.8267822 -1.8267517z" fill-rule="evenodd"/><path fill="#b7b7b7" d="m270.5013 468.86823l0 0c0 -1.0088806 0.8178711 -1.8267517 1.8267822 -1.8267517l0 0c0.48449707 0 0.9491272 0.19244385 1.2917175 0.5350342c0.34259033 0.34259033 0.5350342 0.80722046 0.5350342 1.2917175l0 0c0 1.0089111 -0.8178711 1.8267822 -1.8267517 1.8267822l0 0c-1.0089111 0 -1.8267822 -0.8178711 -1.8267822 -1.8267822z" fill-rule="evenodd"/><path fill="#b7b7b7" d="m372.04996 468.86823l0 0c0 -1.0088806 0.8179016 -1.8267517 1.8267822 -1.8267517l0 0c0.48449707 0 0.9491272 0.19244385 1.2917175 0.5350342c0.34259033 0.34259033 0.5350647 0.80722046 0.5350647 1.2917175l0 0c0 1.0089111 -0.8178711 1.8267822 -1.8267822 1.8267822l0 0c-1.0088806 0 -1.8267822 -0.8178711 -1.8267822 -1.8267822z" fill-rule="evenodd"/><path fill="#b7b7b7" d="m480.91803 359.99985l0 0c0 -1.0089111 0.8178711 -1.8267822 1.8267822 -1.8267822l0 0c0.48449707 0 0.9491272 0.19247437 1.2917175 0.5350647c0.34259033 0.3425598 0.5350647 0.80722046 0.5350647 1.2917175l0 0c0 1.0088806 -0.8178711 1.8267517 -1.8267822 1.8267517l0 0c-1.0089111 0 -1.8267822 -0.8178711 -1.8267822 -1.8267517z" fill-rule="evenodd"/><path fill="#b7b7b7" d="m480.91803 468.86823l0 0c0 -1.0088806 0.8178711 -1.8267517 1.8267822 -1.8267517l0 0c0.48449707 0 0.9491272 0.19244385 1.2917175 0.5350342c0.34259033 0.34259033 0.5350647 0.80722046 0.5350647 1.2917175l0 0c0 1.0089111 -0.8178711 1.8267822 -1.8267822 1.8267822l0 0c-1.0089111 0 -1.8267822 -0.8178711 -1.8267822 -1.8267822z" fill-rule="evenodd"/><path fill="#b7b7b7" d="m586.1264 359.99985l0 0c0 -1.0089111 0.8178711 -1.8267822 1.8267822 -1.8267822l0 0c0.48449707 0 0.9490967 0.19247437 1.291687 0.5350647c0.34259033 0.3425598 0.5350952 0.80722046 0.5350952 1.2917175l0 0c0 1.0088806 -0.8178711 1.8267517 -1.8267822 1.8267517l0 0c-1.0089111 0 -1.8267822 -0.8178711 -1.8267822 -1.8267517z" fill-rule="evenodd"/><path fill="#b7b7b7" d="m691.3348 359.99985l0 0c0 -1.0089111 0.8178711 -1.8267822 1.8267822 -1.8267822l0 0c0.48443604 0 0.9490967 0.19247437 1.291687 0.5350647c0.34259033 0.3425598 0.5350342 0.80722046 0.5350342 1.2917175l0 0c0 1.0088806 -0.8178711 1.8267517 -1.8267212 1.8267517l0 0c-1.0089111 0 -1.8267822 -0.8178711 -1.8267822 -1.8267517z" fill-rule="evenodd"/><path fill="#b7b7b7" d="m589.78613 468.86823l0 0c0 -1.0088806 0.8178711 -1.8267517 1.8267212 -1.8267517l0 0c0.48449707 0 0.9491577 0.19244385 1.291748 0.5350342c0.34259033 0.34259033 0.5350342 0.80722046 0.5350342 1.2917175l0 0c0 1.0089111 -0.8178711 1.8267822 -1.8267822 1.8267822l0 0c-1.0088501 0 -1.8267212 -0.8178711 -1.8267212 -1.8267822z" fill-rule="evenodd"/><path fill="#b7b7b7" d="m691.3348 468.86823l0 0c0 -1.0088806 0.8178711 -1.8267517 1.8267822 -1.8267517l0 0c0.48443604 0 0.9490967 0.19244385 1.291687 0.5350342c0.34259033 0.34259033 0.5350342 0.80722046 0.5350342 1.2917175l0 0c0 1.0089111 -0.8178711 1.8267822 -1.8267212 1.8267822l0 0c-1.0089111 0 -1.8267822 -0.8178711 -1.8267822 -1.8267822z" fill-rule="evenodd"/><path fill="#b7b7b7" d="m800.2028 359.99985l0 0c0 -1.0089111 0.8178711 -1.8267822 1.8267822 -1.8267822l0 0c0.48449707 0 0.9491577 0.19247437 1.291748 0.5350647c0.34259033 0.3425598 0.5350342 0.80722046 0.5350342 1.2917175l0 0c0 1.0088806 -0.8178711 1.8267517 -1.8267822 1.8267517l0 0c-1.0089111 0 -1.8267822 -0.8178711 -1.8267822 -1.8267517z" fill-rule="evenodd"/><path fill="#b7b7b7" d="m909.0709 359.99985l0 0c0 -1.0089111 0.8178711 -1.8267822 1.8267212 -1.8267822l0 0c0.48449707 0 0.9491577 0.19247437 1.291748 0.5350647c0.34259033 0.3425598 0.5350342 0.80722046 0.5350342 1.2917175l0 0c0 1.0088806 -0.8178711 1.8267517 -1.8267822 1.8267517l0 0c-1.0088501 0 -1.8267212 -0.8178711 -1.8267212 -1.8267517z" fill-rule="evenodd"/><path fill="#b7b7b7" d="m800.2028 468.86823l0 0c0 -1.0088806 0.8178711 -1.8267517 1.8267822 -1.8267517l0 0c0.48449707 0 0.9491577 0.19244385 1.291748 0.5350342c0.34259033 0.34259033 0.5350342 0.80722046 0.5350342 1.2917175l0 0c0 1.0089111 -0.8178711 1.8267822 -1.8267822 1.8267822l0 0c-1.0089111 0 -1.8267822 -0.8178711 -1.8267822 -1.8267822z" fill-rule="evenodd"/><path fill="#b7b7b7" d="m909.0709 468.86823l0 0c0 -1.0088806 0.8178711 -1.8267517 1.8267212 -1.8267517l0 0c0.48449707 0 0.9491577 0.19244385 1.291748 0.5350342c0.34259033 0.34259033 0.5350342 0.80722046 0.5350342 1.2917175l0 0c0 1.0089111 -0.8178711 1.8267822 -1.8267822 1.8267822l0 0c-1.0088501 0 -1.8267212 -0.8178711 -1.8267212 -1.8267822z" fill-rule="evenodd"/><path fill="#b7b7b7" d="m49.105473 577.73663l0 0c0 -1.0089111 0.8178711 -1.8267822 1.8267708 -1.8267822l0 0c0.48448944 0 0.9491348 0.19244385 1.2917213 0.5350342c0.34258652 0.34259033 0.53504944 0.807251 0.53504944 1.291748l0 0c0 1.0089111 -0.8178711 1.8267822 -1.8267708 1.8267822l0 0c-1.0088997 0 -1.8267708 -0.8178711 -1.8267708 -1.8267822z" fill-rule="evenodd"/><path fill="#b7b7b7" d="m157.97354 577.73663l0 0c0 -1.0089111 0.8178711 -1.8267822 1.826767 -1.8267822l0 0c0.48449707 0 0.94914246 0.19244385 1.2917328 0.5350342c0.34257507 0.34259033 0.53504944 0.807251 0.53504944 1.291748l0 0c0 1.0089111 -0.81788635 1.8267822 -1.8267822 1.8267822l0 0c-1.0088959 0 -1.826767 -0.8178711 -1.826767 -1.8267822z" fill-rule="evenodd"/><path fill="#b7b7b7" d="m49.105473 686.60504l0 0c0 -1.0089111 0.8178711 -1.8267822 1.8267708 -1.8267822l0 0c0.48448944 0 0.9491348 0.19244385 1.2917213 0.5350342c0.34258652 0.34259033 0.53504944 0.807251 0.53504944 1.291748l0 0c0 1.0088501 -0.8178711 1.8267212 -1.8267708 1.8267212l0 0c-1.0088997 0 -1.8267708 -0.8178711 -1.8267708 -1.8267212z" fill-rule="evenodd"/><path fill="#b7b7b7" d="m157.97354 686.60504l0 0c0 -1.0089111 0.8178711 -1.8267822 1.826767 -1.8267822l0 0c0.48449707 0 0.94914246 0.19244385 1.2917328 0.5350342c0.34257507 0.34259033 0.53504944 0.807251 0.53504944 1.291748l0 0c0 1.0088501 -0.81788635 1.8267212 -1.8267822 1.8267212l0 0c-1.0088959 0 -1.826767 -0.8178711 -1.826767 -1.8267212z" fill-rule="evenodd"/><path fill="#b7b7b7" d="m263.18192 577.73663l0 0c0 -1.0089111 0.8178711 -1.8267822 1.8267517 -1.8267822l0 0c0.48449707 0 0.9491577 0.19244385 1.2917175 0.5350342c0.34259033 0.34259033 0.5350647 0.807251 0.5350647 1.291748l0 0c0 1.0089111 -0.8178711 1.8267822 -1.8267822 1.8267822l0 0c-1.0088806 0 -1.8267517 -0.8178711 -1.8267517 -1.8267822z" fill-rule="evenodd"/><path fill="#b7b7b7" d="m368.39026 577.73663l0 0c0 -1.0089111 0.8178711 -1.8267822 1.8267822 -1.8267822l0 0c0.48449707 0 0.9491272 0.19244385 1.2917175 0.5350342c0.34259033 0.34259033 0.5350342 0.807251 0.5350342 1.291748l0 0c0 1.0089111 -0.8178711 1.8267822 -1.8267517 1.8267822l0 0c-1.0089111 0 -1.8267822 -0.8178711 -1.8267822 -1.8267822z" fill-rule="evenodd"/><path fill="#b7b7b7" d="m266.8416 686.60504l0 0c0 -1.0089111 0.8178711 -1.8267822 1.8267822 -1.8267822l0 0c0.48446655 0 0.9491272 0.19244385 1.2917175 0.5350342c0.34259033 0.34259033 0.5350342 0.807251 0.5350342 1.291748l0 0c0 1.0088501 -0.8178711 1.8267212 -1.8267517 1.8267212l0 0c-1.0089111 0 -1.8267822 -0.8178711 -1.8267822 -1.8267212z" fill-rule="evenodd"/><path fill="#b7b7b7" d="m368.39026 686.60504l0 0c0 -1.0089111 0.8178711 -1.8267822 1.8267822 -1.8267822l0 0c0.48449707 0 0.9491272 0.19244385 1.2917175 0.5350342c0.34259033 0.34259033 0.5350342 0.807251 0.5350342 1.291748l0 0c0 1.0088501 -0.8178711 1.8267212 -1.8267517 1.8267212l0 0c-1.0089111 0 -1.8267822 -0.8178711 -1.8267822 -1.8267212z" fill-rule="evenodd"/><path fill="#b7b7b7" d="m477.25833 577.73663l0 0c0 -1.0089111 0.8178711 -1.8267822 1.8267822 -1.8267822l0 0c0.48446655 0 0.9491272 0.19244385 1.2917175 0.5350342c0.34259033 0.34259033 0.5350342 0.807251 0.5350342 1.291748l0 0c0 1.0089111 -0.8178711 1.8267822 -1.8267517 1.8267822l0 0c-1.0089111 0 -1.8267822 -0.8178711 -1.8267822 -1.8267822z" fill-rule="evenodd"/><path fill="#b7b7b7" d="m477.25833 686.60504l0 0c0 -1.0089111 0.8178711 -1.8267822 1.8267822 -1.8267822l0 0c0.48446655 0 0.9491272 0.19244385 1.2917175 0.5350342c0.34259033 0.34259033 0.5350342 0.807251 0.5350342 1.291748l0 0c0 1.0088501 -0.8178711 1.8267212 -1.8267517 1.8267212l0 0c-1.0089111 0 -1.8267822 -0.8178711 -1.8267822 -1.8267212z" fill-rule="evenodd"/><path fill="#b7b7b7" d="m582.4667 577.73663l0 0c0 -1.0089111 0.8178711 -1.8267822 1.8267822 -1.8267822l0 0c0.48449707 0 0.9491577 0.19244385 1.291748 0.5350342c0.34259033 0.34259033 0.5350342 0.807251 0.5350342 1.291748l0 0c0 1.0089111 -0.8178711 1.8267822 -1.8267822 1.8267822l0 0c-1.0089111 0 -1.8267822 -0.8178711 -1.8267822 -1.8267822z" fill-rule="evenodd"/><path fill="#b7b7b7" d="m687.67505 577.73663l0 0c0 -1.0089111 0.8178711 -1.8267822 1.8267822 -1.8267822l0 0c0.48449707 0 0.9491577 0.19244385 1.291687 0.5350342c0.34259033 0.34259033 0.5350952 0.807251 0.5350952 1.291748l0 0c0 1.0089111 -0.8178711 1.8267822 -1.8267822 1.8267822l0 0c-1.0089111 0 -1.8267822 -0.8178711 -1.8267822 -1.8267822z" fill-rule="evenodd"/><path fill="#b7b7b7" d="m586.1264 686.60504l0 0c0 -1.0089111 0.8178711 -1.8267822 1.8267822 -1.8267822l0 0c0.48449707 0 0.9490967 0.19244385 1.291687 0.5350342c0.34259033 0.34259033 0.5350952 0.807251 0.5350952 1.291748l0 0c0 1.0088501 -0.8178711 1.8267212 -1.8267822 1.8267212l0 0c-1.0089111 0 -1.8267822 -0.8178711 -1.8267822 -1.8267212z" fill-rule="evenodd"/><path fill="#b7b7b7" d="m687.67505 686.60504l0 0c0 -1.0089111 0.8178711 -1.8267822 1.8267822 -1.8267822l0 0c0.48449707 0 0.9491577 0.19244385 1.291687 0.5350342c0.34259033 0.34259033 0.5350952 0.807251 0.5350952 1.291748l0 0c0 1.0088501 -0.8178711 1.8267212 -1.8267822 1.8267212l0 0c-1.0089111 0 -1.8267822 -0.8178711 -1.8267822 -1.8267212z" fill-rule="evenodd"/><path fill="#b7b7b7" d="m796.54315 577.73663l0 0c0 -1.0089111 0.8178711 -1.8267822 1.8267212 -1.8267822l0 0c0.48449707 0 0.9491577 0.19244385 1.291748 0.5350342c0.34259033 0.34259033 0.5350342 0.807251 0.5350342 1.291748l0 0c0 1.0089111 -0.8178711 1.8267822 -1.8267822 1.8267822l0 0c-1.0088501 0 -1.8267212 -0.8178711 -1.8267212 -1.8267822z" fill-rule="evenodd"/><path fill="#b7b7b7" d="m905.4112 577.73663l0 0c0 -1.0089111 0.8178711 -1.8267822 1.8267822 -1.8267822l0 0c0.48449707 0 0.9490967 0.19244385 1.291687 0.5350342c0.34259033 0.34259033 0.5350952 0.807251 0.5350952 1.291748l0 0c0 1.0089111 -0.8178711 1.8267822 -1.8267822 1.8267822l0 0c-1.0089111 0 -1.8267822 -0.8178711 -1.8267822 -1.8267822z" fill-rule="evenodd"/><path fill="#b7b7b7" d="m796.54315 686.60504l0 0c0 -1.0089111 0.8178711 -1.8267822 1.8267212 -1.8267822l0 0c0.48449707 0 0.9491577 0.19244385 1.291748 0.5350342c0.34259033 0.34259033 0.5350342 0.807251 0.5350342 1.291748l0 0c0 1.0088501 -0.8178711 1.8267212 -1.8267822 1.8267212l0 0c-1.0088501 0 -1.8267212 -0.8178711 -1.8267212 -1.8267212z" fill-rule="evenodd"/><path fill="#b7b7b7" d="m905.4112 686.60504l0 0c0 -1.0089111 0.8178711 -1.8267822 1.8267822 -1.8267822l0 0c0.48449707 0 0.9490967 0.19244385 1.291687 0.5350342c0.34259033 0.34259033 0.5350952 0.807251 0.5350952 1.291748l0 0c0 1.0088501 -0.8178711 1.8267212 -1.8267822 1.8267212l0 0c-1.0089111 0 -1.8267822 -0.8178711 -1.8267822 -1.8267212z" fill-rule="evenodd"/><path fill="#0d1211" d="m304.69086 461.86188c5.9752502 0 11.043701 2.1763 15.205383 6.5288696c4.161682 4.3334656 6.2424927 10.251465 6.2424927 17.753937c0 7.5024414 -2.0808105 13.429962 -6.2424927 17.782562c-4.161682 4.3334656 -9.230133 6.5002136 -15.205383 6.5002136c-5.9943542 0 -11.072357 -2.1953735 -15.234009 -6.5861206c-4.161682 -4.409851 -6.242523 -10.366028 -6.242523 -17.86847c0 -7.521576 2.080841 -13.420441 6.242523 -17.696655c4.161682 -4.2762146 9.239685 -6.414337 15.234009 -6.414337zm21.447876 -56.841217l0 45.587524c-3.0544128 -4.581665 -7.2542725 -8.218353 -12.599548 -10.910065c-5.326172 -2.710846 -11.215515 -4.066223 -17.66803 -4.066223c-8.075165 0 -15.405823 2.061737 -21.991943 6.185211c-6.567047 4.1044006 -11.759613 9.965118 -15.577637 17.582123c-3.7989655 7.6170044 -5.698456 16.474884 -5.698456 26.573639c0 10.079651 1.8994904 18.966156 5.698456 26.659515c3.8180542 7.6742554 9.01059 13.592224 15.577637 17.753906c6.5861206 4.161682 13.916779 6.2425537 21.991943 6.2425537c6.929779 0 13.000458 -1.4031372 18.212097 -4.2094116c5.2307434 -2.8253784 9.249237 -6.5861206 12.055481 -11.282349l0 14.088623l30.095795 0l0 -130.20505z" fill-rule="evenodd"/><path fill="#0d1211" d="m421.31625 459.74286c5.2879944 0 9.688293 1.5272217 13.200897 4.581665c3.5126038 3.0544434 5.268921 7.158844 5.268921 12.313202l-37.626892 0c0.82089233 -5.402527 2.959015 -9.564209 6.414337 -12.485016c3.4553223 -2.939911 7.7029114 -4.409851 12.742737 -4.409851zm0.37225342 -24.110962c-9.736023 0 -18.364807 2.061737 -25.886383 6.185211c-7.5024414 4.1044006 -13.334534 9.965118 -17.496185 17.582123c-4.161682 7.6170044 -6.242523 16.532166 -6.242523 26.745453c0 10.194183 2.1094666 19.109314 6.32843 26.745392c4.218933 7.6170654 10.079651 13.477722 17.582092 17.582153c7.521576 4.10437 16.093079 6.156616 25.71457 6.156616c7.9606323 0 15.167206 -1.4604492 21.61972 -4.3812256c6.452484 -2.9398804 11.816864 -6.9870605 16.093048 -12.141418c4.2953186 -5.173462 7.263855 -10.98642 8.905609 -17.438934l-32.014343 0c-2.9398804 6.337982 -8.161072 9.5069275 -15.663544 9.5069275c-5.0398254 0 -9.296936 -1.6130981 -12.771362 -4.8393555c-3.4553528 -3.2262268 -5.412079 -7.884247 -5.87027 -13.97406l68.066284 0c0.36270142 -3.0544434 0.5440674 -5.9847717 0.5440674 -8.791046c0 -9.869659 -2.090393 -18.498444 -6.2711487 -25.886383c-4.161682 -7.387909 -9.936462 -13.076813 -17.324402 -17.06668c-7.387909 -3.9898682 -15.825806 -5.9847717 -25.31366 -5.9847717z" fill-rule="evenodd"/><path fill="#0d1211" d="m486.42456 405.02066l0 130.20505l30.095764 0l0 -130.20505z" fill-rule="evenodd"/><path fill="#0d1211" d="m543.07904 413.12448l0 23.939178l-11.9696045 0l0 24.970032l11.9696045 0l0 39.058655c0 12.084106 3.0448608 20.798828 9.134705 26.144104c6.1088257 5.326172 14.613525 7.989258 25.5141 7.989258l15.319885 0l0 -25.51413l-10.73822 0c-3.2835693 0 -5.631653 -0.63952637 -7.0443115 -1.9185791c-1.4126587 -1.2981262 -2.1190186 -3.4171448 -2.1190186 -6.3570557l0 -39.402252l19.729736 0l0 -24.970032l-19.729736 0l0 -23.939178z" fill-rule="evenodd"/><path fill="#0d1211" d="m655.8584 461.86188c5.9752197 0 11.043701 2.1763 15.205383 6.5288696c4.161621 4.3334656 6.2424927 10.251465 6.2424927 17.753937c0 7.5024414 -2.0808716 13.429962 -6.2424927 17.782562c-4.161682 4.3334656 -9.230164 6.5002136 -15.205383 6.5002136c-5.994385 0 -11.072388 -2.1953735 -15.23407 -6.5861206c-4.161621 -4.409851 -6.2424927 -10.366028 -6.2424927 -17.86847c0 -7.521576 2.0808716 -13.420441 6.2424927 -17.696655c4.161682 -4.2762146 9.239685 -6.414337 15.23407 -6.414337zm-8.819702 -26.22998c-8.075195 0 -15.405823 2.061737 -21.992004 6.185211c-6.5670166 4.1044006 -11.7595825 9.965118 -15.577637 17.582123c-3.7989502 7.6170044 -5.6984253 16.474884 -5.6984253 26.573639c0 10.079651 1.8994751 18.966156 5.6984253 26.659515c3.8180542 7.6742554 9.01062 13.592224 15.577637 17.753906c6.5861816 4.161682 13.859558 6.2425537 21.82019 6.2425537c6.9297485 0 13.000427 -1.4031372 18.212097 -4.2094116c5.230713 -2.8253784 9.3064575 -6.519348 12.227295 -11.081909l0 13.888184l30.095764 0l0 -98.16205l-30.095764 0l0 13.888153c-2.8062744 -4.581665 -6.824768 -8.275635 -12.055481 -11.081909c-5.21167 -2.825348 -11.282349 -4.2380066 -18.212097 -4.2380066z" fill-rule="evenodd"/><path fill="#74ffcb" d="m343.5433 369.51288l136.4567 -236.03148l136.45667 236.03148z" fill-rule="evenodd"/><path fill="#ffffff" d="m382.61417 348.96802l97.38583 -168.44095l97.3858 168.44095z" fill-rule="evenodd"/></g></svg>