<svg version="1.1" viewBox="0.0 0.0 960.0 720.0" fill="none" stroke="none" stroke-linecap="square" stroke-miterlimit="10" xmlns:xlink="http://www.w3.org/1999/xlink" xmlns="http://www.w3.org/2000/svg"><clipPath id="p.0"><path d="m0 0l960.0 0l0 720.0l-960.0 0l0 -720.0z" clip-rule="nonzero"/></clipPath><g clip-path="url(#p.0)"><path fill="#ffffff" d="m0 0l960.0 0l0 720.0l-960.0 0z" fill-rule="evenodd"/><path fill="#cccccc" d="m50.935326 33.394665l0 0c0 -1.0088997 0.8178749 -1.8267708 1.8267708 -1.8267708l0 0c0.48448944 0 0.94913864 0.19246292 1.2917252 0.53504944c0.3425827 0.34258652 0.5350456 0.8072319 0.5350456 1.2917213l0 0c0 1.0088997 -0.8178711 1.8267708 -1.8267708 1.8267708l0 0c-1.0088959 0 -1.8267708 -0.8178711 -1.8267708 -1.8267708z" fill-rule="evenodd"/><path fill="#cccccc" d="m159.80339 33.394665l0 0c0 -1.0088997 0.8178711 -1.8267708 1.8267822 -1.8267708l0 0c0.4844818 0 0.9491272 0.19246292 1.2917175 0.53504944c0.34259033 0.34258652 0.53504944 0.8072319 0.53504944 1.2917213l0 0c0 1.0088997 -0.8178711 1.8267708 -1.826767 1.8267708l0 0c-1.0089111 0 -1.8267822 -0.8178711 -1.8267822 -1.8267708z" fill-rule="evenodd"/><path fill="#cccccc" d="m268.67148 33.394665l0 0c0 -1.0088997 0.8178711 -1.8267708 1.8267517 -1.8267708l0 0c0.48449707 0 0.9491272 0.19246292 1.2917175 0.53504944c0.34259033 0.34258652 0.5350647 0.8072319 0.5350647 1.2917213l0 0c0 1.0088997 -0.8178711 1.8267708 -1.8267822 1.8267708l0 0c-1.0088806 0 -1.8267517 -0.8178711 -1.8267517 -1.8267708z" fill-rule="evenodd"/><path fill="#cccccc" d="m370.22012 33.394665l0 0c0 -1.0088997 0.8178711 -1.8267708 1.8267517 -1.8267708l0 0c0.48449707 0 0.9491577 0.19246292 1.291748 0.53504944c0.3425598 0.34258652 0.5350342 0.8072319 0.5350342 1.2917213l0 0c0 1.0088997 -0.8178711 1.8267708 -1.8267822 1.8267708l0 0c-1.0088806 0 -1.8267517 -0.8178711 -1.8267517 -1.8267708z" fill-rule="evenodd"/><path fill="#cccccc" d="m479.0882 33.394665l0 0c0 -1.0088997 0.8178711 -1.8267708 1.8267517 -1.8267708l0 0c0.48449707 0 0.9491577 0.19246292 1.2917175 0.53504944c0.34259033 0.34258652 0.5350647 0.8072319 0.5350647 1.2917213l0 0c0 1.0088997 -0.8178711 1.8267708 -1.8267822 1.8267708l0 0c-1.0088806 0 -1.8267517 -0.8178711 -1.8267517 -1.8267708z" fill-rule="evenodd"/><path fill="#cccccc" d="m587.95624 33.394665l0 0c0 -1.0088997 0.8178711 -1.8267708 1.8267822 -1.8267708l0 0c0.48449707 0 0.9491577 0.19246292 1.291748 0.53504944c0.34259033 0.34258652 0.5350342 0.8072319 0.5350342 1.2917213l0 0c0 1.0088997 -0.8178711 1.8267708 -1.8267822 1.8267708l0 0c-1.0089111 0 -1.8267822 -0.8178711 -1.8267822 -1.8267708z" fill-rule="evenodd"/><path fill="#cccccc" d="m689.5049 33.394665l0 0c0 -1.0088997 0.8178711 -1.8267708 1.8267822 -1.8267708l0 0c0.48449707 0 0.9491577 0.19246292 1.291748 0.53504944c0.34259033 0.34258652 0.5350342 0.8072319 0.5350342 1.2917213l0 0c0 1.0088997 -0.8178711 1.8267708 -1.8267822 1.8267708l0 0c-1.0089111 0 -1.8267822 -0.8178711 -1.8267822 -1.8267708z" fill-rule="evenodd"/><path fill="#cccccc" d="m798.373 33.394665l0 0c0 -1.0088997 0.8178711 -1.8267708 1.8267822 -1.8267708l0 0c0.48449707 0 0.9490967 0.19246292 1.291687 0.53504944c0.34259033 0.34258652 0.5350342 0.8072319 0.5350342 1.2917213l0 0c0 1.0088997 -0.8178711 1.8267708 -1.8267212 1.8267708l0 0c-1.0089111 0 -1.8267822 -0.8178711 -1.8267822 -1.8267708z" fill-rule="evenodd"/><path fill="#cccccc" d="m907.241 33.394665l0 0c0 -1.0088997 0.8178711 -1.8267708 1.8267822 -1.8267708l0 0c0.48449707 0 0.9491577 0.19246292 1.291748 0.53504944c0.34259033 0.34258652 0.5350342 0.8072319 0.5350342 1.2917213l0 0c0 1.0088997 -0.8178711 1.8267708 -1.8267822 1.8267708l0 0c-1.0089111 0 -1.8267822 -0.8178711 -1.8267822 -1.8267708z" fill-rule="evenodd"/><path fill="#cccccc" d="m47.27562 142.26306l0 0c0 -1.0088959 0.8178711 -1.8267822 1.8267708 -1.8267822l0 0c0.48448944 0 0.9491348 0.19247437 1.2917213 0.53504944c0.34258652 0.34259033 0.53504944 0.8072357 0.53504944 1.2917328l0 0c0 1.0088959 -0.8178749 1.826767 -1.8267708 1.826767l0 0c-1.0088997 0 -1.8267708 -0.8178711 -1.8267708 -1.826767z" fill-rule="evenodd"/><path fill="#cccccc" d="m156.14369 142.26306l0 0c0 -1.0088959 0.8178711 -1.8267822 1.826767 -1.8267822l0 0c0.4844818 0 0.94914246 0.19247437 1.2917175 0.53504944c0.34259033 0.34259033 0.53504944 0.8072357 0.53504944 1.2917328l0 0c0 1.0088959 -0.8178711 1.826767 -1.826767 1.826767l0 0c-1.0088959 0 -1.826767 -0.8178711 -1.826767 -1.826767z" fill-rule="evenodd"/><path fill="#cccccc" d="m47.27562 251.13145l0 0c0 -1.0089111 0.8178711 -1.8267822 1.8267708 -1.8267822l0 0c0.48448944 0 0.9491348 0.19247437 1.2917213 0.53504944c0.34258652 0.34259033 0.53504944 0.8072357 0.53504944 1.2917328l0 0c0 1.0088959 -0.8178749 1.826767 -1.8267708 1.826767l0 0c-1.0088997 0 -1.8267708 -0.8178711 -1.8267708 -1.826767z" fill-rule="evenodd"/><path fill="#cccccc" d="m156.14369 251.13145l0 0c0 -1.0089111 0.8178711 -1.8267822 1.826767 -1.8267822l0 0c0.4844818 0 0.94914246 0.19247437 1.2917175 0.53504944c0.34259033 0.34259033 0.53504944 0.8072357 0.53504944 1.2917328l0 0c0 1.0088959 -0.8178711 1.826767 -1.826767 1.826767l0 0c-1.0088959 0 -1.826767 -0.8178711 -1.826767 -1.826767z" fill-rule="evenodd"/><path fill="#cccccc" d="m261.35205 142.26306l0 0c0 -1.0088959 0.8178711 -1.8267822 1.8267822 -1.8267822l0 0c0.48446655 0 0.9491272 0.19247437 1.2917175 0.53504944c0.34259033 0.34259033 0.5350342 0.8072357 0.5350342 1.2917328l0 0c0 1.0088959 -0.8178711 1.826767 -1.8267517 1.826767l0 0c-1.0089111 0 -1.8267822 -0.8178711 -1.8267822 -1.826767z" fill-rule="evenodd"/><path fill="#cccccc" d="m366.5604 142.26306l0 0c0 -1.0088959 0.8179016 -1.8267822 1.8267822 -1.8267822l0 0c0.48449707 0 0.9491272 0.19247437 1.2917175 0.53504944c0.34259033 0.34259033 0.5350647 0.8072357 0.5350647 1.2917328l0 0c0 1.0088959 -0.8178711 1.826767 -1.8267822 1.826767l0 0c-1.0088806 0 -1.8267822 -0.8178711 -1.8267822 -1.826767z" fill-rule="evenodd"/><path fill="#cccccc" d="m265.01175 251.13145l0 0c0 -1.0089111 0.8178711 -1.8267822 1.8267822 -1.8267822l0 0c0.48449707 0 0.9491272 0.19247437 1.2917175 0.53504944c0.34259033 0.34259033 0.5350647 0.8072357 0.5350647 1.2917328l0 0c0 1.0088959 -0.8179016 1.826767 -1.8267822 1.826767l0 0c-1.0089111 0 -1.8267822 -0.8178711 -1.8267822 -1.826767z" fill-rule="evenodd"/><path fill="#cccccc" d="m366.5604 251.13145l0 0c0 -1.0089111 0.8179016 -1.8267822 1.8267822 -1.8267822l0 0c0.48449707 0 0.9491272 0.19247437 1.2917175 0.53504944c0.34259033 0.34259033 0.5350647 0.8072357 0.5350647 1.2917328l0 0c0 1.0088959 -0.8178711 1.826767 -1.8267822 1.826767l0 0c-1.0088806 0 -1.8267822 -0.8178711 -1.8267822 -1.826767z" fill-rule="evenodd"/><path fill="#cccccc" d="m475.42847 142.26306l0 0c0 -1.0088959 0.8178711 -1.8267822 1.8267822 -1.8267822l0 0c0.48449707 0 0.9491272 0.19247437 1.2917175 0.53504944c0.34259033 0.34259033 0.5350647 0.8072357 0.5350647 1.2917328l0 0c0 1.0088959 -0.8178711 1.826767 -1.8267822 1.826767l0 0c-1.0089111 0 -1.8267822 -0.8178711 -1.8267822 -1.826767z" fill-rule="evenodd"/><path fill="#cccccc" d="m475.42847 251.13145l0 0c0 -1.0089111 0.8178711 -1.8267822 1.8267822 -1.8267822l0 0c0.48449707 0 0.9491272 0.19247437 1.2917175 0.53504944c0.34259033 0.34259033 0.5350647 0.8072357 0.5350647 1.2917328l0 0c0 1.0088959 -0.8178711 1.826767 -1.8267822 1.826767l0 0c-1.0089111 0 -1.8267822 -0.8178711 -1.8267822 -1.826767z" fill-rule="evenodd"/><path fill="#cccccc" d="m580.63684 142.26306l0 0c0 -1.0088959 0.8178711 -1.8267822 1.8267822 -1.8267822l0 0c0.48449707 0 0.9490967 0.19247437 1.291687 0.53504944c0.34259033 0.34259033 0.5350952 0.8072357 0.5350952 1.2917328l0 0c0 1.0088959 -0.8178711 1.826767 -1.8267822 1.826767l0 0c-1.0089111 0 -1.8267822 -0.8178711 -1.8267822 -1.826767z" fill-rule="evenodd"/><path fill="#cccccc" d="m685.8452 142.26306l0 0c0 -1.0088959 0.8178711 -1.8267822 1.8267822 -1.8267822l0 0c0.48443604 0 0.9490967 0.19247437 1.291687 0.53504944c0.34259033 0.34259033 0.5350342 0.8072357 0.5350342 1.2917328l0 0c0 1.0088959 -0.8178711 1.826767 -1.8267212 1.826767l0 0c-1.0089111 0 -1.8267822 -0.8178711 -1.8267822 -1.826767z" fill-rule="evenodd"/><path fill="#cccccc" d="m584.2966 251.13145l0 0c0 -1.0089111 0.8178711 -1.8267822 1.8267212 -1.8267822l0 0c0.48449707 0 0.9491577 0.19247437 1.291748 0.53504944c0.34259033 0.34259033 0.5350342 0.8072357 0.5350342 1.2917328l0 0c0 1.0088959 -0.8178711 1.826767 -1.8267822 1.826767l0 0c-1.0088501 0 -1.8267212 -0.8178711 -1.8267212 -1.826767z" fill-rule="evenodd"/><path fill="#cccccc" d="m685.8452 251.13145l0 0c0 -1.0089111 0.8178711 -1.8267822 1.8267822 -1.8267822l0 0c0.48443604 0 0.9490967 0.19247437 1.291687 0.53504944c0.34259033 0.34259033 0.5350342 0.8072357 0.5350342 1.2917328l0 0c0 1.0088959 -0.8178711 1.826767 -1.8267212 1.826767l0 0c-1.0089111 0 -1.8267822 -0.8178711 -1.8267822 -1.826767z" fill-rule="evenodd"/><path fill="#cccccc" d="m794.71326 142.26306l0 0c0 -1.0088959 0.8178711 -1.8267822 1.8267822 -1.8267822l0 0c0.48449707 0 0.9491577 0.19247437 1.291748 0.53504944c0.34259033 0.34259033 0.5350342 0.8072357 0.5350342 1.2917328l0 0c0 1.0088959 -0.8178711 1.826767 -1.8267822 1.826767l0 0c-1.0089111 0 -1.8267822 -0.8178711 -1.8267822 -1.826767z" fill-rule="evenodd"/><path fill="#cccccc" d="m903.58136 142.26306l0 0c0 -1.0088959 0.8178711 -1.8267822 1.8267212 -1.8267822l0 0c0.48449707 0 0.9491577 0.19247437 1.291748 0.53504944c0.34259033 0.34259033 0.5350342 0.8072357 0.5350342 1.2917328l0 0c0 1.0088959 -0.8178711 1.826767 -1.8267822 1.826767l0 0c-1.0088501 0 -1.8267212 -0.8178711 -1.8267212 -1.826767z" fill-rule="evenodd"/><path fill="#cccccc" d="m794.71326 251.13145l0 0c0 -1.0089111 0.8178711 -1.8267822 1.8267822 -1.8267822l0 0c0.48449707 0 0.9491577 0.19247437 1.291748 0.53504944c0.34259033 0.34259033 0.5350342 0.8072357 0.5350342 1.2917328l0 0c0 1.0088959 -0.8178711 1.826767 -1.8267822 1.826767l0 0c-1.0089111 0 -1.8267822 -0.8178711 -1.8267822 -1.826767z" fill-rule="evenodd"/><path fill="#cccccc" d="m903.58136 251.13145l0 0c0 -1.0089111 0.8178711 -1.8267822 1.8267212 -1.8267822l0 0c0.48449707 0 0.9491577 0.19247437 1.291748 0.53504944c0.34259033 0.34259033 0.5350342 0.8072357 0.5350342 1.2917328l0 0c0 1.0088959 -0.8178711 1.826767 -1.8267822 1.826767l0 0c-1.0088501 0 -1.8267212 -0.8178711 -1.8267212 -1.826767z" fill-rule="evenodd"/><path fill="#cccccc" d="m52.76518 359.99985l0 0c0 -1.0089111 0.8178749 -1.8267822 1.8267746 -1.8267822l0 0c0.48448944 0 0.9491348 0.19247437 1.2917213 0.5350647c0.34258652 0.3425598 0.53504944 0.80722046 0.53504944 1.2917175l0 0c0 1.0088806 -0.8178749 1.8267517 -1.8267708 1.8267517l0 0c-1.0088997 0 -1.8267746 -0.8178711 -1.8267746 -1.8267517z" fill-rule="evenodd"/><path fill="#cccccc" d="m161.63326 359.99985l0 0c0 -1.0089111 0.8178711 -1.8267822 1.826767 -1.8267822l0 0c0.4844818 0 0.9491272 0.19247437 1.2917175 0.5350647c0.34259033 0.3425598 0.53504944 0.80722046 0.53504944 1.2917175l0 0c0 1.0088806 -0.8178711 1.8267517 -1.826767 1.8267517l0 0c-1.0088959 0 -1.826767 -0.8178711 -1.826767 -1.8267517z" fill-rule="evenodd"/><path fill="#cccccc" d="m52.76518 468.86823l0 0c0 -1.0088806 0.8178749 -1.8267517 1.8267746 -1.8267517l0 0c0.48448944 0 0.9491348 0.19244385 1.2917213 0.5350342c0.34258652 0.34259033 0.53504944 0.80722046 0.53504944 1.2917175l0 0c0 1.0089111 -0.8178749 1.8267822 -1.8267708 1.8267822l0 0c-1.0088997 0 -1.8267746 -0.8178711 -1.8267746 -1.8267822z" fill-rule="evenodd"/><path fill="#cccccc" d="m161.63326 468.86823l0 0c0 -1.0088806 0.8178711 -1.8267517 1.826767 -1.8267517l0 0c0.4844818 0 0.9491272 0.19244385 1.2917175 0.5350342c0.34259033 0.34259033 0.53504944 0.80722046 0.53504944 1.2917175l0 0c0 1.0089111 -0.8178711 1.8267822 -1.826767 1.8267822l0 0c-1.0088959 0 -1.826767 -0.8178711 -1.826767 -1.8267822z" fill-rule="evenodd"/><path fill="#cccccc" d="m266.8416 359.99985l0 0c0 -1.0089111 0.8178711 -1.8267822 1.8267822 -1.8267822l0 0c0.48446655 0 0.9491272 0.19247437 1.2917175 0.5350647c0.34259033 0.3425598 0.5350342 0.80722046 0.5350342 1.2917175l0 0c0 1.0088806 -0.8178711 1.8267517 -1.8267517 1.8267517l0 0c-1.0089111 0 -1.8267822 -0.8178711 -1.8267822 -1.8267517z" fill-rule="evenodd"/><path fill="#cccccc" d="m372.04996 359.99985l0 0c0 -1.0089111 0.8179016 -1.8267822 1.8267822 -1.8267822l0 0c0.48449707 0 0.9491272 0.19247437 1.2917175 0.5350647c0.34259033 0.3425598 0.5350647 0.80722046 0.5350647 1.2917175l0 0c0 1.0088806 -0.8178711 1.8267517 -1.8267822 1.8267517l0 0c-1.0088806 0 -1.8267822 -0.8178711 -1.8267822 -1.8267517z" fill-rule="evenodd"/><path fill="#cccccc" d="m270.5013 468.86823l0 0c0 -1.0088806 0.8178711 -1.8267517 1.8267822 -1.8267517l0 0c0.48449707 0 0.9491272 0.19244385 1.2917175 0.5350342c0.34259033 0.34259033 0.5350342 0.80722046 0.5350342 1.2917175l0 0c0 1.0089111 -0.8178711 1.8267822 -1.8267517 1.8267822l0 0c-1.0089111 0 -1.8267822 -0.8178711 -1.8267822 -1.8267822z" fill-rule="evenodd"/><path fill="#cccccc" d="m372.04996 468.86823l0 0c0 -1.0088806 0.8179016 -1.8267517 1.8267822 -1.8267517l0 0c0.48449707 0 0.9491272 0.19244385 1.2917175 0.5350342c0.34259033 0.34259033 0.5350647 0.80722046 0.5350647 1.2917175l0 0c0 1.0089111 -0.8178711 1.8267822 -1.8267822 1.8267822l0 0c-1.0088806 0 -1.8267822 -0.8178711 -1.8267822 -1.8267822z" fill-rule="evenodd"/><path fill="#cccccc" d="m480.91803 359.99985l0 0c0 -1.0089111 0.8178711 -1.8267822 1.8267822 -1.8267822l0 0c0.48449707 0 0.9491272 0.19247437 1.2917175 0.5350647c0.34259033 0.3425598 0.5350647 0.80722046 0.5350647 1.2917175l0 0c0 1.0088806 -0.8178711 1.8267517 -1.8267822 1.8267517l0 0c-1.0089111 0 -1.8267822 -0.8178711 -1.8267822 -1.8267517z" fill-rule="evenodd"/><path fill="#cccccc" d="m480.91803 468.86823l0 0c0 -1.0088806 0.8178711 -1.8267517 1.8267822 -1.8267517l0 0c0.48449707 0 0.9491272 0.19244385 1.2917175 0.5350342c0.34259033 0.34259033 0.5350647 0.80722046 0.5350647 1.2917175l0 0c0 1.0089111 -0.8178711 1.8267822 -1.8267822 1.8267822l0 0c-1.0089111 0 -1.8267822 -0.8178711 -1.8267822 -1.8267822z" fill-rule="evenodd"/><path fill="#cccccc" d="m586.1264 359.99985l0 0c0 -1.0089111 0.8178711 -1.8267822 1.8267822 -1.8267822l0 0c0.48449707 0 0.9490967 0.19247437 1.291687 0.5350647c0.34259033 0.3425598 0.5350952 0.80722046 0.5350952 1.2917175l0 0c0 1.0088806 -0.8178711 1.8267517 -1.8267822 1.8267517l0 0c-1.0089111 0 -1.8267822 -0.8178711 -1.8267822 -1.8267517z" fill-rule="evenodd"/><path fill="#cccccc" d="m691.3348 359.99985l0 0c0 -1.0089111 0.8178711 -1.8267822 1.8267822 -1.8267822l0 0c0.48443604 0 0.9490967 0.19247437 1.291687 0.5350647c0.34259033 0.3425598 0.5350342 0.80722046 0.5350342 1.2917175l0 0c0 1.0088806 -0.8178711 1.8267517 -1.8267212 1.8267517l0 0c-1.0089111 0 -1.8267822 -0.8178711 -1.8267822 -1.8267517z" fill-rule="evenodd"/><path fill="#cccccc" d="m589.78613 468.86823l0 0c0 -1.0088806 0.8178711 -1.8267517 1.8267212 -1.8267517l0 0c0.48449707 0 0.9491577 0.19244385 1.291748 0.5350342c0.34259033 0.34259033 0.5350342 0.80722046 0.5350342 1.2917175l0 0c0 1.0089111 -0.8178711 1.8267822 -1.8267822 1.8267822l0 0c-1.0088501 0 -1.8267212 -0.8178711 -1.8267212 -1.8267822z" fill-rule="evenodd"/><path fill="#cccccc" d="m691.3348 468.86823l0 0c0 -1.0088806 0.8178711 -1.8267517 1.8267822 -1.8267517l0 0c0.48443604 0 0.9490967 0.19244385 1.291687 0.5350342c0.34259033 0.34259033 0.5350342 0.80722046 0.5350342 1.2917175l0 0c0 1.0089111 -0.8178711 1.8267822 -1.8267212 1.8267822l0 0c-1.0089111 0 -1.8267822 -0.8178711 -1.8267822 -1.8267822z" fill-rule="evenodd"/><path fill="#cccccc" d="m800.2028 359.99985l0 0c0 -1.0089111 0.8178711 -1.8267822 1.8267822 -1.8267822l0 0c0.48449707 0 0.9491577 0.19247437 1.291748 0.5350647c0.34259033 0.3425598 0.5350342 0.80722046 0.5350342 1.2917175l0 0c0 1.0088806 -0.8178711 1.8267517 -1.8267822 1.8267517l0 0c-1.0089111 0 -1.8267822 -0.8178711 -1.8267822 -1.8267517z" fill-rule="evenodd"/><path fill="#cccccc" d="m909.0709 359.99985l0 0c0 -1.0089111 0.8178711 -1.8267822 1.8267212 -1.8267822l0 0c0.48449707 0 0.9491577 0.19247437 1.291748 0.5350647c0.34259033 0.3425598 0.5350342 0.80722046 0.5350342 1.2917175l0 0c0 1.0088806 -0.8178711 1.8267517 -1.8267822 1.8267517l0 0c-1.0088501 0 -1.8267212 -0.8178711 -1.8267212 -1.8267517z" fill-rule="evenodd"/><path fill="#cccccc" d="m800.2028 468.86823l0 0c0 -1.0088806 0.8178711 -1.8267517 1.8267822 -1.8267517l0 0c0.48449707 0 0.9491577 0.19244385 1.291748 0.5350342c0.34259033 0.34259033 0.5350342 0.80722046 0.5350342 1.2917175l0 0c0 1.0089111 -0.8178711 1.8267822 -1.8267822 1.8267822l0 0c-1.0089111 0 -1.8267822 -0.8178711 -1.8267822 -1.8267822z" fill-rule="evenodd"/><path fill="#cccccc" d="m909.0709 468.86823l0 0c0 -1.0088806 0.8178711 -1.8267517 1.8267212 -1.8267517l0 0c0.48449707 0 0.9491577 0.19244385 1.291748 0.5350342c0.34259033 0.34259033 0.5350342 0.80722046 0.5350342 1.2917175l0 0c0 1.0089111 -0.8178711 1.8267822 -1.8267822 1.8267822l0 0c-1.0088501 0 -1.8267212 -0.8178711 -1.8267212 -1.8267822z" fill-rule="evenodd"/><path fill="#cccccc" d="m49.105473 577.73663l0 0c0 -1.0089111 0.8178711 -1.8267822 1.8267708 -1.8267822l0 0c0.48448944 0 0.9491348 0.19244385 1.2917213 0.5350342c0.34258652 0.34259033 0.53504944 0.807251 0.53504944 1.291748l0 0c0 1.0089111 -0.8178711 1.8267822 -1.8267708 1.8267822l0 0c-1.0088997 0 -1.8267708 -0.8178711 -1.8267708 -1.8267822z" fill-rule="evenodd"/><path fill="#cccccc" d="m157.97354 577.73663l0 0c0 -1.0089111 0.8178711 -1.8267822 1.826767 -1.8267822l0 0c0.48449707 0 0.94914246 0.19244385 1.2917328 0.5350342c0.34257507 0.34259033 0.53504944 0.807251 0.53504944 1.291748l0 0c0 1.0089111 -0.81788635 1.8267822 -1.8267822 1.8267822l0 0c-1.0088959 0 -1.826767 -0.8178711 -1.826767 -1.8267822z" fill-rule="evenodd"/><path fill="#cccccc" d="m49.105473 686.60504l0 0c0 -1.0089111 0.8178711 -1.8267822 1.8267708 -1.8267822l0 0c0.48448944 0 0.9491348 0.19244385 1.2917213 0.5350342c0.34258652 0.34259033 0.53504944 0.807251 0.53504944 1.291748l0 0c0 1.0088501 -0.8178711 1.8267212 -1.8267708 1.8267212l0 0c-1.0088997 0 -1.8267708 -0.8178711 -1.8267708 -1.8267212z" fill-rule="evenodd"/><path fill="#cccccc" d="m157.97354 686.60504l0 0c0 -1.0089111 0.8178711 -1.8267822 1.826767 -1.8267822l0 0c0.48449707 0 0.94914246 0.19244385 1.2917328 0.5350342c0.34257507 0.34259033 0.53504944 0.807251 0.53504944 1.291748l0 0c0 1.0088501 -0.81788635 1.8267212 -1.8267822 1.8267212l0 0c-1.0088959 0 -1.826767 -0.8178711 -1.826767 -1.8267212z" fill-rule="evenodd"/><path fill="#cccccc" d="m263.18192 577.73663l0 0c0 -1.0089111 0.8178711 -1.8267822 1.8267517 -1.8267822l0 0c0.48449707 0 0.9491577 0.19244385 1.2917175 0.5350342c0.34259033 0.34259033 0.5350647 0.807251 0.5350647 1.291748l0 0c0 1.0089111 -0.8178711 1.8267822 -1.8267822 1.8267822l0 0c-1.0088806 0 -1.8267517 -0.8178711 -1.8267517 -1.8267822z" fill-rule="evenodd"/><path fill="#cccccc" d="m368.39026 577.73663l0 0c0 -1.0089111 0.8178711 -1.8267822 1.8267822 -1.8267822l0 0c0.48449707 0 0.9491272 0.19244385 1.2917175 0.5350342c0.34259033 0.34259033 0.5350342 0.807251 0.5350342 1.291748l0 0c0 1.0089111 -0.8178711 1.8267822 -1.8267517 1.8267822l0 0c-1.0089111 0 -1.8267822 -0.8178711 -1.8267822 -1.8267822z" fill-rule="evenodd"/><path fill="#cccccc" d="m266.8416 686.60504l0 0c0 -1.0089111 0.8178711 -1.8267822 1.8267822 -1.8267822l0 0c0.48446655 0 0.9491272 0.19244385 1.2917175 0.5350342c0.34259033 0.34259033 0.5350342 0.807251 0.5350342 1.291748l0 0c0 1.0088501 -0.8178711 1.8267212 -1.8267517 1.8267212l0 0c-1.0089111 0 -1.8267822 -0.8178711 -1.8267822 -1.8267212z" fill-rule="evenodd"/><path fill="#cccccc" d="m368.39026 686.60504l0 0c0 -1.0089111 0.8178711 -1.8267822 1.8267822 -1.8267822l0 0c0.48449707 0 0.9491272 0.19244385 1.2917175 0.5350342c0.34259033 0.34259033 0.5350342 0.807251 0.5350342 1.291748l0 0c0 1.0088501 -0.8178711 1.8267212 -1.8267517 1.8267212l0 0c-1.0089111 0 -1.8267822 -0.8178711 -1.8267822 -1.8267212z" fill-rule="evenodd"/><path fill="#cccccc" d="m477.25833 577.73663l0 0c0 -1.0089111 0.8178711 -1.8267822 1.8267822 -1.8267822l0 0c0.48446655 0 0.9491272 0.19244385 1.2917175 0.5350342c0.34259033 0.34259033 0.5350342 0.807251 0.5350342 1.291748l0 0c0 1.0089111 -0.8178711 1.8267822 -1.8267517 1.8267822l0 0c-1.0089111 0 -1.8267822 -0.8178711 -1.8267822 -1.8267822z" fill-rule="evenodd"/><path fill="#cccccc" d="m477.25833 686.60504l0 0c0 -1.0089111 0.8178711 -1.8267822 1.8267822 -1.8267822l0 0c0.48446655 0 0.9491272 0.19244385 1.2917175 0.5350342c0.34259033 0.34259033 0.5350342 0.807251 0.5350342 1.291748l0 0c0 1.0088501 -0.8178711 1.8267212 -1.8267517 1.8267212l0 0c-1.0089111 0 -1.8267822 -0.8178711 -1.8267822 -1.8267212z" fill-rule="evenodd"/><path fill="#cccccc" d="m582.4667 577.73663l0 0c0 -1.0089111 0.8178711 -1.8267822 1.8267822 -1.8267822l0 0c0.48449707 0 0.9491577 0.19244385 1.291748 0.5350342c0.34259033 0.34259033 0.5350342 0.807251 0.5350342 1.291748l0 0c0 1.0089111 -0.8178711 1.8267822 -1.8267822 1.8267822l0 0c-1.0089111 0 -1.8267822 -0.8178711 -1.8267822 -1.8267822z" fill-rule="evenodd"/><path fill="#cccccc" d="m687.67505 577.73663l0 0c0 -1.0089111 0.8178711 -1.8267822 1.8267822 -1.8267822l0 0c0.48449707 0 0.9491577 0.19244385 1.291687 0.5350342c0.34259033 0.34259033 0.5350952 0.807251 0.5350952 1.291748l0 0c0 1.0089111 -0.8178711 1.8267822 -1.8267822 1.8267822l0 0c-1.0089111 0 -1.8267822 -0.8178711 -1.8267822 -1.8267822z" fill-rule="evenodd"/><path fill="#cccccc" d="m586.1264 686.60504l0 0c0 -1.0089111 0.8178711 -1.8267822 1.8267822 -1.8267822l0 0c0.48449707 0 0.9490967 0.19244385 1.291687 0.5350342c0.34259033 0.34259033 0.5350952 0.807251 0.5350952 1.291748l0 0c0 1.0088501 -0.8178711 1.8267212 -1.8267822 1.8267212l0 0c-1.0089111 0 -1.8267822 -0.8178711 -1.8267822 -1.8267212z" fill-rule="evenodd"/><path fill="#cccccc" d="m687.67505 686.60504l0 0c0 -1.0089111 0.8178711 -1.8267822 1.8267822 -1.8267822l0 0c0.48449707 0 0.9491577 0.19244385 1.291687 0.5350342c0.34259033 0.34259033 0.5350952 0.807251 0.5350952 1.291748l0 0c0 1.0088501 -0.8178711 1.8267212 -1.8267822 1.8267212l0 0c-1.0089111 0 -1.8267822 -0.8178711 -1.8267822 -1.8267212z" fill-rule="evenodd"/><path fill="#cccccc" d="m796.54315 577.73663l0 0c0 -1.0089111 0.8178711 -1.8267822 1.8267212 -1.8267822l0 0c0.48449707 0 0.9491577 0.19244385 1.291748 0.5350342c0.34259033 0.34259033 0.5350342 0.807251 0.5350342 1.291748l0 0c0 1.0089111 -0.8178711 1.8267822 -1.8267822 1.8267822l0 0c-1.0088501 0 -1.8267212 -0.8178711 -1.8267212 -1.8267822z" fill-rule="evenodd"/><path fill="#cccccc" d="m905.4112 577.73663l0 0c0 -1.0089111 0.8178711 -1.8267822 1.8267822 -1.8267822l0 0c0.48449707 0 0.9490967 0.19244385 1.291687 0.5350342c0.34259033 0.34259033 0.5350952 0.807251 0.5350952 1.291748l0 0c0 1.0089111 -0.8178711 1.8267822 -1.8267822 1.8267822l0 0c-1.0089111 0 -1.8267822 -0.8178711 -1.8267822 -1.8267822z" fill-rule="evenodd"/><path fill="#cccccc" d="m796.54315 686.60504l0 0c0 -1.0089111 0.8178711 -1.8267822 1.8267212 -1.8267822l0 0c0.48449707 0 0.9491577 0.19244385 1.291748 0.5350342c0.34259033 0.34259033 0.5350342 0.807251 0.5350342 1.291748l0 0c0 1.0088501 -0.8178711 1.8267212 -1.8267822 1.8267212l0 0c-1.0088501 0 -1.8267212 -0.8178711 -1.8267212 -1.8267212z" fill-rule="evenodd"/><path fill="#cccccc" d="m905.4112 686.60504l0 0c0 -1.0089111 0.8178711 -1.8267822 1.8267822 -1.8267822l0 0c0.48449707 0 0.9490967 0.19244385 1.291687 0.5350342c0.34259033 0.34259033 0.5350952 0.807251 0.5350952 1.291748l0 0c0 1.0088501 -0.8178711 1.8267212 -1.8267822 1.8267212l0 0c-1.0089111 0 -1.8267822 -0.8178711 -1.8267822 -1.8267212z" fill-rule="evenodd"/><path fill="#000000" d="m318.32266 456.93658c4.295288 0 7.9415283 1.1454163 10.93869 3.4362488c2.9971619 2.2908325 5.2879944 5.5361633 6.8724976 9.736023c1.5845032 4.1998596 2.3767395 9.153778 2.3767395 14.861755c0 5.708008 -0.80178833 10.690552 -2.405365 14.947662c-1.6035767 4.238037 -3.8944092 7.5406494 -6.8724976 9.907837c-2.9780884 2.3480835 -6.6147766 3.5221558 -10.910065 3.5221558c-4.3716736 0 -8.046539 -1.1931152 -11.024628 -3.5794067c-2.9780884 -2.4053955 -5.249817 -5.7366333 -6.815216 -9.993744c-1.5463257 -4.2762146 -2.319458 -9.21106 -2.319458 -14.804504c0 -5.5361633 0.76361084 -10.404175 2.2908325 -14.604034c1.5462952 -4.218933 3.8180542 -7.5119934 6.815216 -9.879181c2.9971619 -2.367218 6.6815796 -3.5508118 11.053253 -3.5508118zm19.615204 -51.915924l0 48.10742l-0.80178833 0c-1.1644897 -2.5962524 -2.8635254 -5.230713 -5.0970764 -7.903351c-2.2144775 -2.6917114 -5.1257324 -4.9443665 -8.733795 -6.7579346c-3.6080627 -1.8135986 -8.094269 -2.7203674 -13.458618 -2.7203674c-7.0443115 0 -13.5159 1.8231201 -19.414795 5.4693604c-5.8988647 3.6462097 -10.614166 9.125122 -14.145874 16.436676c-3.5316772 7.3115845 -5.2975464 16.465363 -5.2975464 27.461334c0 10.690552 1.7181396 19.720245 5.1543884 27.08908c3.4362488 7.3497314 8.094238 12.914551 13.97406 16.694397c5.8988647 3.7608032 12.494568 5.6411743 19.787018 5.6411743c5.1543884 0 9.5355835 -0.84954834 13.143646 -2.548584c3.6080627 -1.7180786 6.547943 -3.8753052 8.819702 -6.4715576c2.2717285 -2.6153564 4.0280457 -5.2593994 5.2688904 -7.932007l1.1167908 0l0 15.377197l26.258636 0l0 -127.94284z" fill-rule="evenodd"/><path fill="#000000" d="m429.40732 455.61935c3.8753357 0 7.2829285 0.8495178 10.222839 2.5485535c2.9398804 1.6799622 5.240265 3.9994202 6.901123 6.9584045c1.6608582 2.939911 2.491272 6.32843 2.491272 10.165558l-40.265106 0c0.15942383 -3.449829 1.0483704 -6.599701 2.66687 -9.4496765c1.7562866 -3.1117249 4.1807556 -5.593445 7.2733765 -7.4451904c3.1117249 -1.8517456 6.6815796 -2.777649 10.709625 -2.777649zm-0.4295349 -19.872925c-9.4114685 0 -17.610748 2.080841 -24.597778 6.2424927c-6.967926 4.161682 -12.370483 9.97467 -16.207611 17.438965c-3.8180542 7.464264 -5.7270813 16.131256 -5.7270813 26.000885c0 10.117859 1.9090271 18.870728 5.7270813 26.258636c3.8371277 7.387909 9.306488 13.095917 16.408081 17.123932c7.1015625 4.008972 15.587158 6.0134277 25.456818 6.0134277c7.922455 0 14.909485 -1.2122192 20.96109 -3.6366577c6.070709 -2.4435425 11.024628 -5.860718 14.861755 -10.251465c3.8562317 -4.390747 6.414337 -9.5451355 7.674286 -15.463104l-24.626404 -1.6322021c-0.9163513 2.4244385 -2.252655 4.467102 -4.008972 6.12796c-1.7372131 1.6608582 -3.8371277 2.911255 -6.299774 3.7512207c-2.4626465 0.8399658 -5.173462 1.2599487 -8.132446 1.2599487c-4.4480286 0 -8.294708 -0.9354248 -11.540039 -2.8062744c-3.2453613 -1.8899231 -5.755707 -4.562561 -7.5310974 -8.017883c-1.7753906 -3.4553223 -2.6631165 -7.559723 -2.6631165 -12.313202l0 -0.057281494l65.34592 0l0 -7.302002c0 -8.170624 -1.1454163 -15.300842 -3.4362488 -21.390625c-2.290802 -6.1088867 -5.488434 -11.177338 -9.592834 -15.205383c-4.085327 -4.047119 -8.867432 -7.082489 -14.346313 -9.106049c-5.4789124 -2.0235596 -11.387329 -3.0353394 -17.725311 -3.0353394z" fill-rule="evenodd"/><path fill="#000000" d="m491.46045 405.02066l0 127.94284l26.602234 0l0 -127.94284z" fill-rule="evenodd"/><path fill="#000000" d="m545.6751 414.01218l0 22.994202l-13.11499 0l0 19.987488l13.11499 0l0 49.96872c-0.038146973 6.2998047 1.2790527 11.511414 3.9517212 15.634888c2.6726074 4.123535 6.4143066 7.168396 11.225037 9.134705c4.2669067 1.7271118 9.164612 2.5906372 14.693054 2.5906372c0.70458984 0 1.4194336 -0.014038086 2.1445312 -0.042114258c3.4553833 -0.13360596 6.385742 -0.48675537 8.791077 -1.0595093c2.4244995 -0.55358887 4.3048706 -1.0308228 5.6411743 -1.4317627l-4.2094116 -19.815643c-0.66815186 0.11453247 -1.6226807 0.28634644 -2.8635254 0.5154114c-1.2408447 0.22912598 -2.491272 0.34362793 -3.7512207 0.34362793c-1.7944946 0 -3.3694458 -0.26727295 -4.7248535 -0.8017578c-1.3554077 -0.5345459 -2.4053345 -1.4795227 -3.1499023 -2.8349304c-0.74450684 -1.3554077 -1.1167603 -3.2644348 -1.1167603 -5.7270813l0 -46.47519l18.040283 0l0 -19.987488l-18.040283 0l0 -22.994202z" fill-rule="evenodd"/><path fill="#000000" d="m662.6482 488.49277l0 10.165558c0 3.3789673 -0.8590698 6.404785 -2.5772095 9.077423c-1.6990356 2.653534 -4.047119 4.76297 -7.0443115 6.3283997c-2.9971313 1.5654297 -6.4524536 2.3480835 -10.365967 2.3480835c-4.085327 0 -7.454712 -0.9449463 -10.108276 -2.8349c-2.6344604 -1.9089966 -3.9517212 -4.6770935 -3.9517212 -8.30423c0 -2.48172 0.63952637 -4.562561 1.9185791 -6.242523c1.2981567 -1.6990356 3.1117554 -3.0448914 5.440735 -4.037567c2.3290405 -1.0118103 5.058899 -1.7467651 8.189697 -2.2049255c1.4508667 -0.21002197 3.0735474 -0.44863892 4.868042 -0.71588135c1.7944946 -0.26727295 3.5889282 -0.5727234 5.383423 -0.9163513c1.7944946 -0.36270142 3.4076538 -0.76361084 4.8394165 -1.2026672c1.4317627 -0.4390869 2.567627 -0.9259033 3.4075928 -1.4604187zm-14.317688 -52.746338c-7.6552124 0 -14.394043 1.1549377 -20.216553 3.4648743c-5.803467 2.309906 -10.537842 5.602997 -14.203186 9.879211c-3.6652832 4.2762146 -6.118408 9.325562 -7.359253 15.148102l24.597778 2.004486c0.9163208 -3.1690063 2.7871704 -5.8034363 5.612549 -7.9033813c2.8444214 -2.0999146 6.6624756 -3.1498718 11.454102 -3.1498718c4.543518 0 8.04657 1.0881348 10.509216 3.2644348c2.4816895 2.157196 3.7225952 5.211609 3.7225952 9.1633l0 0.37225342c0 2.0426636 -0.77319336 3.5889587 -2.319458 4.6389465c-1.5272217 1.0308533 -3.9994507 1.8040161 -7.416565 2.319458c-3.4171753 0.5154419 -7.912903 1.0690613 -13.487305 1.6608582c-4.753418 0.4581604 -9.2873535 1.2503967 -13.601746 2.3767395c-4.314392 1.1263123 -8.161133 2.796692 -11.5401 5.0111694c-3.3598633 2.1953735 -6.022949 5.1066284 -7.989258 8.733795c-1.9472046 3.6271362 -2.9207764 8.103821 -2.9207764 13.429993c0 6.337982 1.3840332 11.625946 4.1520996 15.863983c2.7680664 4.218933 6.5479736 7.397461 11.3396 9.5355835c4.791687 2.1381226 10.251465 3.2071533 16.379456 3.2071533c4.734375 0 8.915161 -0.62994385 12.542297 -1.8899536c3.6271362 -1.2789917 6.729309 -3.0543823 9.3064575 -5.326172c2.5772095 -2.2717285 4.638977 -4.906189 6.1852417 -7.9033203l0.7445679 0l0 13.31543l25.256348 0l0 -64.71594c0 -5.7079773 -1.1072388 -10.614166 -3.3216553 -14.718567c-2.1953735 -4.1044006 -5.2020874 -7.4642944 -9.020142 -10.079651c-3.8180542 -2.6344604 -8.170654 -4.572113 -13.057739 -5.8129883c-4.887146 -1.2599487 -10.003296 -1.8899231 -15.348572 -1.8899231z" fill-rule="evenodd"/><path fill="#74ffcb" d="m343.5433 369.51288l136.4567 -236.03148l136.45667 236.03148z" fill-rule="evenodd"/></g></svg>